<?xml version="1.0" standalone="no"?>
<!DOCTYPE svg PUBLIC "-//W3C//DTD SVG 20010904//EN"
 "http://www.w3.org/TR/2001/REC-SVG-20010904/DTD/svg10.dtd">
<svg version="1.0" xmlns="http://www.w3.org/2000/svg"
 width="58.000000pt" height="62.000000pt" viewBox="0 0 58.000000 62.000000"
 preserveAspectRatio="xMidYMid meet">

<g transform="translate(0.000000,62.000000) scale(0.100000,-0.100000)"
fill="#000000" stroke="none">
<path d="M155 564 c-130 -53 -130 -54 -133 -88 l-3 -36 68 26 c37 15 100 38
138 52 l70 25 85 -37 c77 -34 85 -40 87 -67 1 -16 -2 -29 -8 -29 -6 0 -42 14
-81 30 -38 17 -77 30 -85 30 -9 0 -73 -23 -144 -52 l-129 -52 0 -104 c0 -79 3
-103 12 -100 7 3 69 24 138 48 l125 43 85 -35 c83 -33 99 -49 86 -83 -4 -11
-23 -6 -90 20 l-85 33 -133 -52 c-130 -50 -133 -52 -136 -84 -2 -18 1 -32 7
-32 5 0 66 22 136 49 l128 48 133 -52 134 -53 2 224 c1 123 2 236 2 250 1 24
-9 30 -134 80 -74 30 -137 53 -140 53 -3 0 -63 -25 -135 -55z m235 -198 c85
-33 85 -33 86 -70 1 -43 9 -43 -108 0 l-77 27 -88 -31 c-49 -18 -92 -32 -96
-32 -4 0 -7 15 -7 33 0 32 2 34 88 69 48 20 94 37 102 37 8 0 53 -15 100 -33z"/>
</g>
</svg>
